<?xml version="1.0" encoding="UTF-8"?>
<!DOCTYPE svg PUBLIC "-//W3C//DTD SVG 1.1//EN" "http://www.w3.org/Graphics/SVG/1.1/DTD/svg11.dtd">
<!-- Creator: CorelDRAW X6 -->
<svg xmlns="http://www.w3.org/2000/svg" xml:space="preserve" width="9.6in" height="1.8in" version="1.1" style="shape-rendering:geometricPrecision; text-rendering:geometricPrecision; image-rendering:optimizeQuality; fill-rule:evenodd; clip-rule:evenodd"
viewBox="310 4400 7800 180" 
 xmlns:xlink="http://www.w3.org/1999/xlink">
 <defs>
  <style type="text/css">
   <![CDATA[
    .fil0 {fill:#332E61}
   ]]>
  </style>
 </defs>
 <g id="Слой_x0020_1">
  <metadata id="CorelCorpID_0Corel-Layer"/>
  <path class="fil0" d="M1031 3770c462,0 797,431 693,875 -239,0 -491,0 -731,0 -8,0 -14,-3 -20,-8l-63 -64c-11,-11 -11,-28 0,-39l244 -244c4,-4 3,-10 0,-13l-100 -100c-3,-3 -10,-3 -13,0l-302 301c-3,3 -4,9 0,13l385 385c11,11 11,28 0,39l-58 58c-10,10 -28,11 -39,0l-469 -469c-10,-10 -11,-28 0,-39l469 -469c11,-11 28,-11 39,0l270 270c10,10 11,28 0,39l-201 201 462 0c13,-322 -244,-591 -566,-591 -313,0 -567,254 -567,567 0,313 294,567 567,567 273,0 432,-140 520,-340l132 60c-110,250 -310,425 -652,425 -342,0 -712,-319 -712,-712 0,-393 319,-712 712,-712zm3027 519c0,0 4,-4 4,0 0,0 39,-23 54,-43 50,-62 50,-178 31,-251 -31,-112 -132,-170 -248,-151 -120,15 -170,101 -186,220 -19,116 -15,267 -15,391 0,108 -12,290 43,364 38,58 140,79 233,71 190,-15 193,-146 201,-311 4,-93 4,-213 -81,-271 -12,-12 -23,-12 -35,-19zm-186 -159l0 631c0,87 51,91 84,82 51,-15 46,-166 52,-213 4,-46 0,-228 -8,-271 -15,-54 -39,-43 -124,-43l0 -46c43,0 93,8 104,-23 20,-81 16,-192 8,-275 -8,-41 2,-82 -54,-85 -50,0 -54,46 -58,93 -8,43 -4,104 -4,151zm1706 35l0 -50 -224 0 0 46 66 0 0 673 -66 0 0 46c97,0 190,-1 286,-1l0 -46 -54 0c0,-46 -4,-542 4,-565 4,-81 43,-132 81,-101 46,31 35,244 35,313l0 352 -54 0 0 46 274 0 0 -46 -53 0c0,-77 -8,-499 4,-557 12,-74 35,-147 77,-112 31,35 35,93 35,139 0,58 4,116 4,174l0 356 -54 0 0 46 282 0 0 -46 -62 0c0,-112 4,-484 0,-565 -4,-43 -12,-74 -31,-108 -43,-70 -128,-81 -174,-66 -23,0 -85,35 -104,77 -27,-50 -58,-77 -132,-81 -97,0 -108,39 -139,73zm-3737 -286l77 0 0 956 -77 0 0 46 333 0 0 -47 -77 0 0 -940 193 0 0 940 -77 0 0 46 333 0 0 -46 -77 0 0 -956 77 0 0 -43 -704 0 0 43zm928 294l0 -58 -220 0 4 46 62 0 0 940 -66 4 0 43 302 -4 -4 -39 -66 -4 0 -255c8,15 35,31 50,43 23,12 54,12 85,8 58,-8 85,-39 112,-77 39,-62 43,-251 43,-340 0,-135 0,-406 -190,-387 -66,4 -81,43 -112,81zm1985 -54l0 43 62 0 0 673 -62 0 0 46 573 0 0 -46 -66 0 0 -720 -232 0 0 46 66 0 0 275 -108 0c0,-58 4,-282 0,-321l-232 4zm2689 232c54,0 108,4 162,4 8,-62 -4,-151 23,-193 15,-23 54,-31 77,-8 15,23 19,58 19,89 0,93 -4,112 -74,143 -101,50 -193,101 -213,224 -12,66 -8,143 19,193 43,93 155,97 201,85 23,0 70,-23 81,-62 8,15 8,23 27,43 19,15 31,12 58,12 46,0 97,-4 143,-4l0 -39c-85,-8 -77,-15 -77,-112l0 -193c0,-193 35,-391 -143,-429 -50,-12 -124,-8 -174,4 -54,15 -81,43 -104,85 -15,39 -31,112 -27,159zm-1203 -232l0 43 62 0 0 545c0,89 26,166 122,185 18,0 35,-1 53,4 42,-1 84,-13 104,-38l31 -43 0 66 213 0 0 -46 -62 0c0,-236 4,-484 0,-720l-232 0 0 46 62 0 0 487c0,62 -12,178 -77,174 -39,-4 -43,-39 -46,-77 -4,-108 0,-267 0,-379l0 -251 -228 4zm-2646 484l-159 0 -8 190c-12,93 -97,66 -104,31l-15 -379 290 0c0,-197 -15,-364 -236,-352 -217,12 -213,174 -224,371 -4,81 0,201 19,275 4,19 12,35 19,54 23,46 70,85 128,97 128,31 255,-19 279,-147 8,-31 15,-104 12,-139zm1103 4l0 -4 -159 0c0,62 -8,128 -8,190 0,85 -97,70 -104,31l-15 -379 290 0c0,-201 -19,-364 -236,-352 -97,8 -159,43 -186,108 -50,120 -54,484 0,592 77,147 286,120 356,50 54,-54 62,-139 62,-236zm-1919 -240c0,108 -4,313 23,406 4,31 39,89 73,54l23 -124c4,-27 0,-333 0,-333 0,-46 8,-217 -54,-201 -54,15 -66,128 -66,197zm4828 321c0,31 4,101 15,128 15,35 39,31 62,19 39,-39 43,-224 46,-286l0 -151c-39,27 -89,50 -104,101 -15,50 -19,132 -19,190zm-2619 147l108 0 0 -340 -108 0 0 340zm-576 -445l124 0c0,-46 -4,-101 -8,-147 0,-43 -4,-108 -54,-104 -46,0 -50,54 -54,101 -4,46 -8,101 -8,151zm-1103 0l124 0c0,-50 -4,-97 -8,-147 -4,-46 0,-108 -54,-104 -46,0 -46,58 -54,101 -4,50 -8,101 -8,151zm3951 -101c0,0 4,-4 4,0 0,0 39,-23 54,-43 50,-62 50,-178 31,-251 -31,-112 -132,-170 -248,-151 -120,15 -170,101 -186,220 -19,116 -15,267 -15,391 0,108 -12,290 43,364 38,58 140,79 233,71 190,-15 193,-146 201,-311 4,-93 4,-213 -81,-271 -12,-12 -23,-12 -35,-19zm-186 -159l0 631c0,87 51,91 84,82 51,-15 46,-166 52,-213 4,-46 0,-228 -8,-271 -15,-54 -39,-43 -124,-43l0 -46c43,0 93,8 104,-23 20,-81 16,-192 8,-275 -8,-41 2,-82 -54,-85 -50,0 -54,46 -58,93 -8,43 -4,104 -4,151z"/>
 </g>
</svg>
